<svg id="Capa_1" data-name="Capa 1" xmlns="http://www.w3.org/2000/svg" viewBox="0 0 502.85 130"><defs><style>.cls-1,.cls-2{fill:#91cd96;}.cls-2{fill-rule:evenodd;}</style></defs><g id="Capa_2" data-name="Capa 2"><g id="Capa_1-2" data-name="Capa 1-2"><path id="Layer" class="cls-1" d="M139,53.45q0,10-4.06,15.5t-11.49,5.53q-7.14,0-10.58-5T109.4,54.72V23.92H89.65V57.1q0,18.23,8,26t20.6,7.78a27.37,27.37,0,0,0,12.33-2.52,27.65,27.65,0,0,0,8.83-7L141.22,90h17.51V23.92H139Z" transform="translate(-0.57)"/><path id="Layer-2" data-name="Layer" class="cls-1" d="M213.8,23.08a29.92,29.92,0,0,0-13.17,2.6,25.6,25.6,0,0,0-2.56,1.42,23.42,23.42,0,0,0-2.39,1.69,26.31,26.31,0,0,0-4.16,4.1l-1.82-9H172.46V90.87h19.76V54c0-6.26,1.39-6,4.2-9.5s6.77-5.18,11.91-5.18c9.72,0,14.57,1.12,14.57,13.55v38h19.77V51.78c0-12.05-2.72-15.62-8.13-20.84s-12.34-7.86-20.74-7.86Z" transform="translate(-0.57)"/><path id="Layer-3" data-name="Layer" class="cls-1" d="M255.14,0h19.75V18.42H255.14Z" transform="translate(-0.57)"/><path id="Layer-4" data-name="Layer" class="cls-1" d="M255.14,23.92h19.75v67H255.14Z" transform="translate(-0.57)"/><path id="Layer-5" data-name="Layer" class="cls-1" d="M387.13,23.92,370,75.63,352.51,23.92H312.17V0H293.25V23.92H281.33V40.6h11.92V70.27a20.6,20.6,0,0,0,20.6,20.6h16.39V74.19H319.17q-3.78,0-5.38-1.67t-1.62-5.47V40.6h25.72l21.36,55.77-.46,6.85a12.14,12.14,0,0,1-4.18,8.51,5,5,0,0,1-.41.33c-1.12.85-2.95,1.27-5.47,1.27H337.8V130H357a18.24,18.24,0,0,0,8.9-1.9,15.23,15.23,0,0,0,5.68-5.6,67.39,67.39,0,0,0,4.76-10.3l32-88.28Z" transform="translate(-0.57)"/><path id="Layer-6" data-name="Layer" class="cls-1" d="M422,93.8a5.89,5.89,0,0,1-4,2l-.5.06-.49,0-.5,0H416a16.36,16.36,0,0,1-3.53-.41l-.38-.1-.37-.11-.37-.13a2.17,2.17,0,0,1-.35-.15,2.64,2.64,0,0,1-.38-.18,3.35,3.35,0,0,1-.37-.2,2.56,2.56,0,0,1-.35-.22,4,4,0,0,1-.34-.23l-.37-.3-.33-.33c-.11-.12-.22-.24-.31-.36a4.56,4.56,0,0,1-.27-.39l1.81-.74a2.86,2.86,0,0,0,.29.33,3,3,0,0,0,.43.36,3.72,3.72,0,0,0,.45.33l.48.27.52.23a11.12,11.12,0,0,0,3.88.66,6.66,6.66,0,0,0,3.73-.93,4.59,4.59,0,0,0,.39-.37,2.16,2.16,0,0,0,.29-.45,2.34,2.34,0,0,0,.19-.5,3.07,3.07,0,0,0,.07-.53,1.78,1.78,0,0,0-1.17-1.69,18.58,18.58,0,0,0-4.46-.68c-2.63-.22-3.92-.35-4.92-1.29a2.94,2.94,0,0,1-1-2.29,3.42,3.42,0,0,1,1.9-3.11,11.82,11.82,0,0,1,9.87.4l.16.11.16.11.15.12.15.13a6.87,6.87,0,0,1,.9,1l-1.79.72a1.8,1.8,0,0,0-.2-.19,1.29,1.29,0,0,0-.21-.19,1.2,1.2,0,0,0-.21-.17,1.84,1.84,0,0,0-.22-.17,7.06,7.06,0,0,0-4.21-1.15,8.89,8.89,0,0,0-3,.45,2,2,0,0,0-1.52,1.85c0,.07,0,.14,0,.22s0,.15.05.22,0,.14.07.21a1.24,1.24,0,0,0,.1.2c.49.78,1.46.85,2.26,1,1.51.2,3,.27,4.55.45,2.11.25,3.09.8,3.74,1.62a4,4,0,0,1,.32.48,3.43,3.43,0,0,1,.23.52c.06.19.1.38.14.57a5.78,5.78,0,0,1,0,.58,3.85,3.85,0,0,1-.7,2.31Z" transform="translate(-0.57)"/><path id="Layer-7" data-name="Layer" class="cls-2" d="M437.74,89.21a5.81,5.81,0,0,1-3.89.94h-6.58v5.49h-2V81.92h8.39c.35,0,.7,0,1.05,0a4.79,4.79,0,0,1,3.75,1.81,4.68,4.68,0,0,1,.3.54,3.14,3.14,0,0,1,.22.58,6,6,0,0,1,.14.61c0,.2,0,.41,0,.61a3.84,3.84,0,0,1-1.44,3.1Zm-1.17-4.68c-.77-1-2.09-1-3.2-1h-6.12v5h6.33a3.52,3.52,0,0,0,3-1,2.37,2.37,0,0,0,.51-1.56,2.56,2.56,0,0,0,0-.39,2.34,2.34,0,0,0-.09-.38,1.73,1.73,0,0,0-.16-.37,1.85,1.85,0,0,0-.21-.33Z" transform="translate(-0.57)"/><path id="Layer-8" data-name="Layer" class="cls-2" d="M455.26,93.64A8.93,8.93,0,0,1,448.77,96l-.52,0-.52,0a4.52,4.52,0,0,1-.53-.06l-.52-.07a7.4,7.4,0,0,1-5.31-3.2,7.11,7.11,0,0,1-1-3.69,7,7,0,0,1,1.38-4.37l.23-.27a2,2,0,0,1,.24-.26l.26-.24.27-.23a9,9,0,0,1,5.9-2,10.87,10.87,0,0,1,4.26.86,7.64,7.64,0,0,1,2.93,2.42,7.33,7.33,0,0,1,1.21,4.1,6.79,6.79,0,0,1-1.8,4.66Zm-.68-7.25c-1.48-3.16-5.39-3.14-6.16-3.13A7.19,7.19,0,0,0,443.78,85a2.86,2.86,0,0,0-.36.41,3.65,3.65,0,0,0-.32.45,3.1,3.1,0,0,0-.26.47,5.49,5.49,0,0,0-.21.51c-.05.16-.1.33-.14.49a4.37,4.37,0,0,0-.09.5,4.26,4.26,0,0,0-.06.5c0,.17,0,.34,0,.51a5.57,5.57,0,0,0,1,3.24l.24.29a3.44,3.44,0,0,0,.27.27,2.26,2.26,0,0,0,.28.25l.3.22a7.28,7.28,0,0,0,4.4,1.19h.59l.58,0a5.81,5.81,0,0,0,.58-.09l.57-.12a5,5,0,0,0,3.79-3.74l.08-.37c0-.13,0-.26.05-.38s0-.27,0-.39,0-.26,0-.39a6.08,6.08,0,0,0,0-.61,6,6,0,0,0-.09-.61c-.05-.2-.1-.4-.17-.6a4.45,4.45,0,0,0-.22-.57Z" transform="translate(-0.57)"/><path id="Layer-9" data-name="Layer" class="cls-2" d="M472.92,95.64l-4.65-5.5h-6.63v5.5h-1.95V81.92H469a7.47,7.47,0,0,1,2.17.21A3.73,3.73,0,0,1,474.09,86a3.6,3.6,0,0,1-2.21,3.51,5.81,5.81,0,0,1-1.5.37l5.08,5.81Zm-1.19-11a2.52,2.52,0,0,0-2.56-1.13h-7.55v5h6.79c1.11,0,2.4,0,3.16-1a2.23,2.23,0,0,0,.51-1.5c0-.11,0-.23,0-.34a2,2,0,0,0-.07-.35,1.6,1.6,0,0,0-.11-.33,1.87,1.87,0,0,0-.15-.32Z" transform="translate(-0.57)"/><path id="Layer-10" data-name="Layer" class="cls-1" d="M483.26,83.55V95.64h-1.94V83.55h-5.6V81.92h13.16v1.63Z" transform="translate(-0.57)"/><path id="Layer-11" data-name="Layer" class="cls-1" d="M502.73,93.8a5.91,5.91,0,0,1-4,2l-.5.06-.49,0-.5,0h-.5a16.36,16.36,0,0,1-3.53-.41l-.38-.1-.37-.11-.37-.13a2.75,2.75,0,0,1-.36-.15l-.38-.18-.37-.19-.34-.22-.34-.24-.37-.3-.34-.33q-.17-.18-.3-.36l-.28-.39,1.8-.74c.1.12.18.21.3.33s.28.25.42.36l.46.33a4.67,4.67,0,0,0,.49.27l.51.23a11.2,11.2,0,0,0,3.89.66,6.68,6.68,0,0,0,3.73-.93A2.72,2.72,0,0,0,501,93a2.66,2.66,0,0,0,.29-.45,3,3,0,0,0,.19-.5,2.33,2.33,0,0,0,.06-.53,1.78,1.78,0,0,0-1.17-1.69,18.51,18.51,0,0,0-4.46-.68c-2.62-.22-3.91-.35-4.92-1.29a2.93,2.93,0,0,1-1-2.29,3.41,3.41,0,0,1,1.89-3.11,9.73,9.73,0,0,1,4.53-.89,9.57,9.57,0,0,1,5.34,1.29l.17.11a.91.91,0,0,0,.16.11l.15.12.15.13a6.08,6.08,0,0,1,.89,1l-1.78.72-.2-.19-.21-.18-.21-.18-.22-.17a7.17,7.17,0,0,0-4.22-1.15,9.15,9.15,0,0,0-3,.45,2,2,0,0,0-1.51,1.85c0,.07,0,.15,0,.23a2.07,2.07,0,0,0,0,.22c0,.06,0,.13.08.2a1.24,1.24,0,0,0,.1.2c.49.78,1.46.85,2.26,1,1.51.2,3,.27,4.54.45,2.12.25,3.09.8,3.75,1.62a4,4,0,0,1,.32.48,3.54,3.54,0,0,1,.23.53,3.48,3.48,0,0,1,.12.56,2.3,2.3,0,0,1,0,.58,3.86,3.86,0,0,1-.69,2.31Z" transform="translate(-0.57)"/><path id="Layer-12" data-name="Layer" class="cls-2" d="M67.52,23.92v67H.57V23.92ZM37.26,55.21c0,1-1.12,1.51-1.95,1.69L35,57a1.86,1.86,0,0,1-.34.06,2,2,0,0,1-.35,0,1.88,1.88,0,0,1-.34,0,7.58,7.58,0,0,1-4.47-1.69l-.26-.21A2.75,2.75,0,0,1,29,55l-.24-.23a1.36,1.36,0,0,1-.24-.24L25.29,58l.43.4.46.38.49.35.5.32a14,14,0,0,0,6.88,1.86c2.85,0,6.31-1,8-3.45a5.69,5.69,0,0,0,.9-3.14c0-3.49-2.59-5-5.58-5.66l-2.49-.54a9.39,9.39,0,0,1-2.52-.68,1.14,1.14,0,0,1-.51-.9,1.29,1.29,0,0,1,.87-1.12l.43-.14.44-.1A3.11,3.11,0,0,1,34,45.5l.45,0a8,8,0,0,1,3.71,1.15l.26.17.26.18.25.19.24.19,3.05-3.43-.27-.2-.3-.19-.3-.18a2.38,2.38,0,0,0-.3-.18,14,14,0,0,0-1.61-.78,14.39,14.39,0,0,0-1.68-.56A15.05,15.05,0,0,0,36,41.49a17.54,17.54,0,0,0-1.78-.12c-4.18,0-6.3,2-7.17,3.49q-.18.33-.33.66c-.09.23-.17.46-.24.7s-.12.48-.16.72-.05.49-.06.74,0,.4,0,.6.07.4.11.6l.18.58c.07.19.16.37.25.56,1,1.87,2.77,2.77,6.71,3.42,2,.32,3.67.47,3.71,1.77ZM50.73,68.07,45.33,62c-10.86,9.61-21.4,1-22.57,0L20.07,65l-2.7,3.06a27.06,27.06,0,0,0,17.15,6.52A24,24,0,0,0,50.73,68.07Z" transform="translate(-0.57)"/></g></g></svg>